<svg width="122" height="35" viewBox="0 0 122 35" fill="none" xmlns="http://www.w3.org/2000/svg">
<g clip-path="url(#clip0)">
<path fill-rule="evenodd" clip-rule="evenodd" d="M3.13667 13.717C1.10883 7.5066 4.78487 0 11.3179 0H23.6919C28.1102 0 31.3636 3.68136 29.176 7.52004C27.5086 10.4458 24.7363 13.9467 20.1266 17.5C15.9276 20.7368 10.3771 35 5.07525 35C1.16416 35 -1.25171 30.4831 0.589651 27.0326C2.32781 23.7755 3.85545 20.1571 3.85545 17.5C3.85545 16.3774 3.58274 15.0831 3.13667 13.717Z" fill="white" fill-opacity="0.240658"/>
<path fill-rule="evenodd" clip-rule="evenodd" d="M17.0211 13.2075C17.0211 7.94495 18.7693 0 24.0319 0H34.6793C39.0975 0 42.3551 3.68078 40.1788 7.52592C38.5236 10.4505 35.7726 13.949 31.2006 17.5C27.0055 20.7582 21.6227 35 16.311 35H15.8271C11.9769 35 9.59806 30.6938 11.46 27.3237C14.1464 22.4614 17.0211 16.4912 17.0211 13.2075Z" fill="url(#paint0_linear)"/>
<path d="M53.03 27.156C52.3193 27.156 51.7473 26.9393 51.314 26.506C50.8807 26.0727 50.664 25.5007 50.664 24.79V10.88C50.664 10.1693 50.8547 9.62333 51.236 9.242C51.6173 8.86067 52.1633 8.67 52.874 8.67H61.61C62.39 8.67 62.962 8.826 63.326 9.138C63.69 9.43267 63.872 9.90933 63.872 10.568C63.872 11.2093 63.6813 11.6773 63.3 11.972C62.936 12.2667 62.3727 12.414 61.61 12.414H55.37V15.794H61.09C61.8527 15.794 62.416 15.95 62.78 16.262C63.1613 16.574 63.352 17.0507 63.352 17.692C63.352 18.3333 63.1613 18.8013 62.78 19.096C62.416 19.3907 61.8527 19.538 61.09 19.538H55.37V24.79C55.37 25.518 55.1533 26.0987 54.72 26.532C54.304 26.948 53.7407 27.156 53.03 27.156ZM71.5773 27.208C70.1733 27.208 68.934 26.9393 67.8593 26.402C66.802 25.8473 65.9787 25.0673 65.3893 24.062C64.8173 23.0567 64.5313 21.878 64.5313 20.526C64.5313 19.174 64.8173 18.004 65.3893 17.016C65.9787 16.0107 66.802 15.2393 67.8593 14.702C68.9167 14.1647 70.156 13.896 71.5773 13.896C72.9987 13.896 74.238 14.1647 75.2953 14.702C76.3527 15.2393 77.1673 16.0107 77.7393 17.016C78.3287 18.004 78.6233 19.174 78.6233 20.526C78.6233 21.878 78.3287 23.0567 77.7393 24.062C77.1673 25.0673 76.3527 25.8473 75.2953 26.402C74.238 26.9393 72.9987 27.208 71.5773 27.208ZM71.5773 23.75C73.224 23.75 74.0473 22.6753 74.0473 20.526C74.0473 18.3767 73.224 17.302 71.5773 17.302C69.9307 17.302 69.1073 18.3767 69.1073 20.526C69.1073 22.6753 69.9307 23.75 71.5773 23.75ZM86.8812 27.208C84.8012 27.208 83.1545 26.6187 81.9412 25.44C80.7279 24.2613 80.1212 22.658 80.1212 20.63C80.1212 19.2953 80.4159 18.1167 81.0052 17.094C81.5945 16.0713 82.4179 15.2827 83.4752 14.728C84.5499 14.1733 85.7719 13.896 87.1412 13.896C87.8692 13.896 88.5972 13.9913 89.3252 14.182C90.0532 14.3727 90.6945 14.6413 91.2492 14.988C91.7865 15.3173 92.0552 15.82 92.0552 16.496C92.0552 17.0333 91.9252 17.4753 91.6652 17.822C91.4225 18.1513 91.1019 18.316 90.7032 18.316C90.4432 18.316 90.1919 18.2813 89.9492 18.212C89.7065 18.1253 89.4379 18.004 89.1432 17.848C88.7965 17.692 88.5019 17.5793 88.2592 17.51C88.0165 17.4233 87.7479 17.38 87.4532 17.38C85.7372 17.38 84.8792 18.4287 84.8792 20.526C84.8792 21.566 85.0959 22.3633 85.5292 22.918C85.9799 23.4553 86.6212 23.724 87.4532 23.724C87.7479 23.724 88.0165 23.6893 88.2592 23.62C88.5192 23.5333 88.8052 23.412 89.1172 23.256C89.4639 23.1 89.7412 22.9873 89.9492 22.918C90.1745 22.8313 90.4172 22.788 90.6772 22.788C91.0759 22.788 91.3965 22.9613 91.6392 23.308C91.8992 23.6373 92.0292 24.0707 92.0292 24.608C92.0292 24.9373 91.9599 25.2407 91.8212 25.518C91.6825 25.778 91.4919 25.9773 91.2492 26.116C90.0532 26.844 88.5972 27.208 86.8812 27.208ZM104.301 13.948C105.012 13.948 105.575 14.1387 105.991 14.52C106.407 14.9013 106.615 15.4213 106.615 16.08V25.076C106.615 25.6827 106.399 26.1853 105.965 26.584C105.532 26.9653 104.969 27.156 104.275 27.156C103.651 27.156 103.14 26.9913 102.741 26.662C102.343 26.3153 102.135 25.856 102.117 25.284C101.719 25.908 101.207 26.3847 100.583 26.714C99.9765 27.0433 99.2745 27.208 98.4772 27.208C96.8305 27.208 95.6085 26.7573 94.8112 25.856C94.0139 24.9373 93.6152 23.5507 93.6152 21.696V16.08C93.6152 15.4213 93.8232 14.9013 94.2392 14.52C94.6552 14.1387 95.2185 13.948 95.9292 13.948C96.6399 13.948 97.2032 14.1387 97.6192 14.52C98.0352 14.9013 98.2432 15.4213 98.2432 16.08V21.8C98.2432 23.048 98.7805 23.672 99.8552 23.672C100.479 23.672 100.991 23.4467 101.389 22.996C101.788 22.5453 101.987 21.956 101.987 21.228V16.08C101.987 15.4213 102.195 14.9013 102.611 14.52C103.027 14.1387 103.591 13.948 104.301 13.948ZM114.353 27.208C113.192 27.208 112.212 27.1213 111.415 26.948C110.618 26.7747 109.916 26.4973 109.309 26.116C109.066 25.9947 108.876 25.7867 108.737 25.492C108.598 25.1973 108.529 24.868 108.529 24.504C108.529 24.036 108.65 23.6547 108.893 23.36C109.153 23.048 109.474 22.892 109.855 22.892C110.115 22.892 110.358 22.9267 110.583 22.996C110.808 23.048 111.086 23.1433 111.415 23.282C111.97 23.4727 112.455 23.62 112.871 23.724C113.304 23.828 113.85 23.88 114.509 23.88C114.977 23.88 115.341 23.8193 115.601 23.698C115.878 23.5593 116.017 23.3687 116.017 23.126C116.017 22.9353 115.948 22.788 115.809 22.684C115.688 22.58 115.445 22.4847 115.081 22.398C114.717 22.294 114.102 22.1553 113.235 21.982C111.692 21.6873 110.574 21.2453 109.881 20.656C109.205 20.0493 108.867 19.2 108.867 18.108C108.867 17.3107 109.11 16.5913 109.595 15.95C110.098 15.3087 110.782 14.806 111.649 14.442C112.516 14.078 113.486 13.896 114.561 13.896C115.341 13.896 116.095 13.9913 116.823 14.182C117.568 14.3727 118.227 14.6413 118.799 14.988C119.336 15.3 119.605 15.8027 119.605 16.496C119.605 16.9813 119.475 17.3887 119.215 17.718C118.955 18.0473 118.634 18.212 118.253 18.212C117.802 18.212 117.265 18.0647 116.641 17.77C116.225 17.5793 115.852 17.4407 115.523 17.354C115.211 17.25 114.838 17.198 114.405 17.198C113.972 17.198 113.634 17.2673 113.391 17.406C113.148 17.5273 113.027 17.7093 113.027 17.952C113.027 18.2293 113.192 18.446 113.521 18.602C113.868 18.758 114.544 18.9313 115.549 19.122C117.23 19.4167 118.418 19.8673 119.111 20.474C119.804 21.0633 120.151 21.9213 120.151 23.048C120.151 24.3133 119.622 25.3273 118.565 26.09C117.525 26.8353 116.121 27.208 114.353 27.208Z" fill="#D8BD9E"/>
</g>
<defs>
<linearGradient id="paint0_linear" x1="-4" y1="17.5" x2="30.5882" y2="47.1471" gradientUnits="userSpaceOnUse">
<stop stop-color="#FCF8C8"/>
<stop offset="1" stop-color="#D3978D"/>
</linearGradient>
<clipPath id="clip0">
<rect width="122" height="35" fill="white"/>
</clipPath>
</defs>
</svg>
